<?xml version="1.0" encoding="UTF-8"?>
<svg width="31px" height="30px" viewBox="0 0 31 30" version="1.1" xmlns="http://www.w3.org/2000/svg" xmlns:xlink="http://www.w3.org/1999/xlink">
    <!-- Generator: Sketch 48.1 (47250) - http://www.bohemiancoding.com/sketch -->
    <title>search</title>
    <desc>Created with Sketch.</desc>
    <defs></defs>
    <g id="Page-1" stroke="none" stroke-width="1" fill="none" fill-rule="evenodd">
        <path d="M23.006573,20.8744703 L29.5815747,27.1117073 C30.1825952,27.6818527 30.2076244,28.6312703 29.6374789,29.2322908 C29.0673335,29.8333114 28.1179159,29.8583405 27.5168954,29.2881951 L20.8857209,22.997671 C18.6882745,24.738376 15.9099643,25.7777778 12.8888889,25.7777778 C5.77055211,25.7777778 0,20.0072257 0,12.8888889 C0,5.77055211 5.77055211,0 12.8888889,0 C20.0072257,0 25.7777778,5.77055211 25.7777778,12.8888889 C25.7777778,15.9048108 24.7419191,18.6787951 23.006573,20.8744703 Z M12.8888889,22.7777778 C18.3503714,22.7777778 22.7777778,18.3503714 22.7777778,12.8888889 C22.7777778,7.42740636 18.3503714,3 12.8888889,3 C7.42740636,3 3,7.42740636 3,12.8888889 C3,18.3503714 7.42740636,22.7777778 12.8888889,22.7777778 Z" id="search" fill="#999999" fill-rule="nonzero"></path>
    </g>
</svg>