<?xml version="1.0" encoding="UTF-8"?>
<svg width="28px" height="28px" viewBox="0 0 28 28" version="1.1" xmlns="http://www.w3.org/2000/svg" xmlns:xlink="http://www.w3.org/1999/xlink">
    <!-- Generator: Sketch 48.1 (47250) - http://www.bohemiancoding.com/sketch -->
    <title>full screen</title>
    <desc>Created with Sketch.</desc>
    <defs></defs>
    <g id="Page-1" stroke="none" stroke-width="1" fill="none" fill-rule="evenodd">
        <path d="M21.9065615,0.000961700071 C21.5996413,0.0155540479 21.3236853,0.195851096 21.1826677,0.473920855 C21.0416501,0.751990613 21.0570009,1.08557592 21.2229361,1.34898911 C21.3888713,1.6124023 21.6801744,1.76561351 21.9870889,1.7508961 L25.0605508,1.7508961 L17.9472983,8.99671825 C17.7220011,9.21497566 17.630063,9.54020455 17.7069096,9.84708757 C17.7837562,10.1539706 18.0173922,10.3946053 18.317793,10.4762701 C18.6181938,10.557935 18.9384686,10.4678827 19.1552091,10.2408122 L26.2818828,2.98131873 L26.2818828,6.12573212 C26.277503,6.44127598 26.440255,6.73477857 26.7078181,6.89385247 C26.9753812,7.05292637 27.3063021,7.05292637 27.5738652,6.89385247 C27.8414283,6.73477857 28.0041803,6.44127598 27.9998004,6.12573212 L27.9998004,0.875928902 C27.999753,0.392717864 27.6152118,0.00100998978 27.1408416,0.000961700071 L21.9870889,0.000961700071 C21.9602612,-0.00032056669 21.9333892,-0.00032056669 21.9065615,0.000961700071 Z M18.4573051,17.4866344 C18.1229516,17.5197805 17.8382437,17.7484128 17.7285547,18.0718512 C17.6188657,18.3952895 17.7043244,18.7541808 17.9472983,18.9904843 L25.073972,26.2499778 L21.9870889,26.2499778 C21.6773182,26.2455163 21.3891856,26.4113015 21.2330221,26.6838512 C21.0768586,26.9564008 21.0768586,27.2934891 21.2330221,27.5660388 C21.3891856,27.8385885 21.6773182,28.0043736 21.9870889,27.9999122 L27.1408416,27.9999122 C27.6152118,27.9998639 27.999753,27.608156 27.9998004,27.124945 L27.9998004,21.8751418 C28.0051292,21.6231545 27.9035322,21.3810638 27.7210284,21.210869 C27.5385246,21.0406741 27.2928395,20.9589052 27.046893,20.9865032 C26.6043608,21.0360395 26.2723079,21.4217533 26.2818828,21.8751418 L26.2818828,25.0058838 L19.1552091,17.7463903 C18.9732687,17.5564988 18.71657,17.460957 18.4573051,17.4866344 Z M6.09332514,0.000961700071 C6.40024535,0.0155540479 6.67620134,0.195851096 6.81721892,0.473920855 C6.9582365,0.751990613 6.94288578,1.08557592 6.77695058,1.34898911 C6.61101538,1.6124023 6.31971221,1.76561351 6.01279775,1.7508961 L2.93933583,1.7508961 L10.0525883,8.99671825 C10.2778855,9.21497566 10.3698237,9.54020455 10.2929771,9.84708757 C10.2161305,10.1539706 9.98249442,10.3946053 9.68209364,10.4762701 C9.38169286,10.557935 9.06141799,10.4678827 8.84467751,10.2408122 L1.7180038,2.98131873 L1.7180038,6.12573212 C1.72238364,6.44127598 1.55963167,6.73477857 1.29206856,6.89385247 C1.02450546,7.05292637 0.693584569,7.05292637 0.426021462,6.89385247 C0.158458356,6.73477857 -0.00429360918,6.44127598 8.62236853e-05,6.12573212 L8.62236853e-05,0.875928902 C0.00013362988,0.392717864 0.384674811,0.00100998978 0.859045013,0.000961700071 L6.01279775,0.000961700071 C6.03962545,-0.00032056669 6.06649743,-0.00032056669 6.09332514,0.000961700071 Z M9.5439026,17.4866344 C9.87825607,17.5197805 10.162964,17.7484128 10.272653,18.0718512 C10.382342,18.3952895 10.2968833,18.7541808 10.0539094,18.9904843 L2.92723567,26.2499778 L6.01411882,26.2499778 C6.32388949,26.2455163 6.61202215,26.4113015 6.76818563,26.6838512 C6.92434911,26.9564008 6.92434911,27.2934891 6.76818563,27.5660388 C6.61202215,27.8385885 6.32388949,28.0043736 6.01411882,27.9999122 L0.860366085,27.9999122 C0.385995883,27.9998639 0.00145470179,27.608156 0.00140729559,27.124945 L0.00140729559,21.8751418 C-0.00392151469,21.6231545 0.0976754741,21.3810638 0.280179309,21.210869 C0.462683144,21.0406741 0.70836823,20.9589052 0.954314703,20.9865032 C1.39684694,21.0360395 1.72889984,21.4217533 1.71932487,21.8751418 L1.71932487,25.0058838 L8.84599858,17.7463903 C9.02793898,17.5564988 9.28463772,17.460957 9.5439026,17.4866344 Z" id="full-screen" fill="#999999" fill-rule="nonzero"></path>
    </g>
</svg>